<?xml version="1.0" encoding="UTF-8" ?>
<!DOCTYPE svg PUBLIC "-//W3C//DTD SVG 1.1//EN" "http://www.w3.org/Graphics/SVG/1.1/DTD/svg11.dtd">
<svg width="907pt" height="369pt" viewBox="0 0 907 369" version="1.1" xmlns="http://www.w3.org/2000/svg">
<path fill="#ffffff" d=" M 0.00 0.00 L 907.00 0.00 L 907.00 369.00 L 0.00 369.00 L 0.00 0.00 Z" />
<path fill="#244f78" d=" M 104.95 9.97 C 112.98 9.93 121.01 9.95 129.04 9.96 C 129.10 46.64 129.03 83.31 129.07 119.99 C 129.08 122.23 129.01 124.48 128.88 126.72 C 126.81 122.06 127.76 116.85 127.63 111.93 C 127.61 78.35 127.63 44.78 127.65 11.21 C 120.58 10.68 113.48 10.55 106.40 11.08 C 106.47 56.38 106.35 101.69 106.43 147.00 C 131.62 147.66 156.83 147.04 182.03 147.33 C 185.57 147.33 189.19 147.46 192.65 146.56 C 194.08 140.62 193.07 134.45 192.87 128.43 C 176.25 128.34 159.63 128.39 143.01 128.39 C 138.41 128.30 133.55 129.12 129.23 127.12 C 150.83 126.71 172.44 127.03 194.04 126.95 C 194.03 133.98 194.07 141.01 194.02 148.04 C 164.33 148.04 134.64 148.07 104.95 148.03 C 104.93 102.01 104.93 55.99 104.95 9.97 Z" />
<path fill="#244f75" d=" M 482.95 9.97 C 490.32 9.93 497.69 9.96 505.06 9.97 C 505.07 18.33 505.06 26.68 505.05 35.04 C 497.68 35.07 490.32 35.07 482.96 35.05 C 482.92 26.69 482.93 18.33 482.95 9.97 Z" />
<path fill="#165193" d=" M 60.62 92.02 C 60.62 64.88 60.61 37.74 60.62 10.60 C 67.95 10.63 75.28 10.66 82.60 10.58 C 82.67 42.73 82.61 74.88 82.63 107.03 C 82.48 117.05 81.05 127.68 74.93 135.95 C 68.85 144.15 58.77 148.49 48.81 149.41 C 41.01 150.01 32.90 149.61 25.64 146.45 C 17.91 143.33 11.78 136.80 8.75 129.08 C 5.65 121.61 5.33 113.41 5.33 105.44 C 12.22 104.53 19.09 103.57 25.97 102.61 C 26.14 109.75 26.42 117.44 30.37 123.65 C 38.18 133.75 58.24 129.97 59.63 116.43 C 60.98 108.36 60.56 100.16 60.62 92.02 Z" />
<path fill="#0f539d" d=" M 106.40 11.08 C 113.48 10.55 120.58 10.68 127.65 11.21 C 127.63 44.78 127.61 78.35 127.63 111.93 C 127.76 116.85 126.81 122.06 128.88 126.72 C 128.97 126.82 129.15 127.02 129.23 127.12 C 133.55 129.12 138.41 128.30 143.01 128.39 C 159.63 128.39 176.25 128.34 192.87 128.43 C 193.07 134.45 194.08 140.62 192.65 146.56 C 189.19 147.46 185.57 147.33 182.03 147.33 C 156.83 147.04 131.62 147.66 106.43 147.00 C 106.35 101.69 106.47 56.38 106.40 11.08 Z" />
<path fill="#125197" d=" M 209.39 91.97 C 209.36 64.85 209.39 37.72 209.37 10.60 C 222.05 10.53 234.71 10.52 247.39 10.60 C 247.40 38.06 247.34 65.52 247.42 92.98 C 247.99 101.49 248.00 110.72 252.86 118.11 C 256.91 124.03 263.91 127.69 270.98 128.33 C 279.02 127.90 287.85 124.11 291.30 116.36 C 295.33 107.53 295.61 97.59 295.81 88.05 C 295.83 62.24 295.82 36.43 295.81 10.62 C 308.56 10.51 321.30 10.52 334.04 10.61 C 334.04 36.42 334.08 62.23 334.03 88.05 C 333.33 102.91 333.15 119.25 323.65 131.59 C 314.03 144.33 297.53 149.69 282.04 149.61 C 269.32 149.25 256.36 150.73 243.92 147.39 C 232.89 144.70 222.44 138.08 216.85 127.98 C 210.77 117.06 209.67 104.23 209.39 91.97 Z" />
<path fill="#0c54a1" d=" M 484.51 11.53 C 490.77 10.40 497.22 10.11 503.47 11.52 C 503.59 17.72 503.70 23.93 503.58 30.12 C 503.40 31.32 503.74 33.58 501.91 33.49 C 496.14 33.98 490.34 33.52 484.56 33.44 C 484.33 26.14 484.39 18.83 484.51 11.53 Z" />
<path fill="#0c53a1" d=" M 539.61 10.60 C 556.08 10.63 572.56 10.61 589.03 10.61 C 599.36 10.68 609.79 10.16 620.01 12.07 C 628.36 13.42 636.57 17.44 641.64 24.39 C 652.17 37.83 653.01 58.63 642.12 72.12 C 636.17 79.76 626.95 84.01 617.69 86.08 C 630.71 95.07 638.21 109.43 646.66 122.35 C 651.99 130.69 657.34 139.01 662.66 147.36 C 653.40 147.42 644.14 147.38 634.88 147.39 C 624.90 131.98 615.66 116.06 604.66 101.33 C 600.14 95.34 593.98 89.33 586.02 89.12 C 578.03 88.96 570.04 89.15 562.06 89.05 C 562.04 108.49 562.06 127.93 562.04 147.37 C 554.57 147.41 547.09 147.38 539.62 147.40 C 539.62 101.80 539.63 56.20 539.61 10.60 Z" />
<path fill="#0c53a1" d=" M 226.46 12.78 C 232.65 12.11 238.89 12.53 245.10 12.29 C 245.71 16.16 245.73 20.08 245.60 23.98 C 245.64 46.99 245.56 70.00 245.58 93.01 C 245.76 98.04 246.55 103.02 246.76 108.05 C 246.84 111.80 249.04 114.97 250.89 118.08 C 252.92 121.25 255.10 124.69 258.66 126.31 C 261.94 127.74 265.35 128.92 268.40 130.86 C 255.63 134.17 240.42 129.21 233.11 117.94 C 230.25 110.68 228.86 102.78 229.14 94.97 C 229.13 69.64 229.18 44.31 229.14 18.98 C 229.39 16.53 227.87 14.59 226.46 12.78 Z" />
<path fill="#0c53a1" d=" M 312.53 13.12 C 319.25 13.15 325.97 13.10 332.69 13.27 C 332.49 37.17 332.72 61.07 332.54 84.96 C 332.47 89.97 331.62 94.93 331.57 99.95 C 331.55 103.58 331.24 107.23 330.22 110.73 C 328.76 115.66 328.12 120.91 325.49 125.42 C 320.59 134.74 311.36 141.04 301.60 144.44 C 295.45 147.28 288.57 147.10 281.98 147.73 C 279.21 148.02 276.48 147.43 273.87 146.58 C 280.75 145.11 287.80 143.65 293.78 139.70 C 301.36 135.94 307.40 129.27 310.28 121.30 C 312.32 116.17 313.05 110.68 314.34 105.35 C 315.00 102.63 315.33 99.83 315.28 97.03 C 314.97 70.38 315.43 43.73 315.12 17.08 C 314.54 16.72 313.36 16.01 312.78 15.65 L 312.75 15.31 C 312.69 14.76 312.58 13.67 312.53 13.12 Z" />
<path fill="#fdffff" d=" M 65.39 15.39 C 69.57 15.38 73.75 15.39 77.93 15.35 C 77.96 44.90 77.98 74.46 77.92 104.02 C 77.81 113.95 77.06 124.70 71.03 133.02 C 64.82 141.33 54.02 144.84 43.96 144.85 C 34.73 145.07 24.71 142.64 18.35 135.51 C 12.04 128.52 10.32 118.75 10.16 109.64 C 13.87 109.20 17.56 108.66 21.26 108.11 C 21.95 114.43 22.59 121.20 26.46 126.50 C 35.13 138.01 55.94 136.40 62.52 123.50 C 65.42 117.10 65.18 109.89 65.37 103.02 C 65.40 73.81 65.37 44.60 65.39 15.39 Z" />
<path fill="#224f7c" d=" M 110.09 15.31 C 114.72 15.06 119.36 15.09 123.99 15.41 C 124.71 21.92 124.29 28.48 124.36 35.01 C 124.41 66.94 124.25 98.86 124.47 130.78 C 138.96 131.72 153.52 130.92 168.04 131.20 C 174.49 131.54 181.07 130.12 187.39 131.90 C 165.92 132.22 144.43 131.98 122.95 132.02 C 122.93 93.37 122.93 54.71 122.95 16.05 C 118.98 16.04 115.01 16.04 111.05 16.04 C 111.07 58.01 111.05 99.98 111.06 141.95 C 136.68 141.96 162.30 141.94 187.93 141.96 C 187.96 138.60 187.94 135.23 188.12 131.87 C 189.03 135.37 189.07 139.01 188.84 142.59 C 173.57 143.10 158.29 142.61 143.01 142.78 C 132.18 142.97 121.31 142.25 110.51 143.42 C 108.72 136.08 109.90 128.52 109.63 121.07 C 109.65 92.37 109.61 63.67 109.64 34.97 C 109.76 28.42 109.27 21.84 110.09 15.31 Z" />
<path fill="#feffff" d=" M 214.19 15.37 C 218.39 15.39 222.59 15.38 226.79 15.37 C 226.85 41.91 226.75 68.44 226.84 94.97 C 227.44 104.93 228.13 116.05 235.29 123.77 C 243.47 132.62 256.46 134.83 267.96 133.74 C 276.91 133.10 286.61 130.65 292.59 123.47 C 298.55 115.69 299.82 105.51 300.34 96.00 C 300.45 69.13 300.33 42.25 300.40 15.38 C 304.51 15.36 308.63 15.42 312.75 15.31 L 312.78 15.65 C 313.14 42.42 312.84 69.22 312.93 96.01 C 312.59 108.71 310.46 122.71 300.98 132.03 C 291.42 141.78 277.25 145.07 263.99 144.83 C 250.03 144.97 234.59 141.94 224.97 130.97 C 216.37 121.16 214.89 107.47 214.24 94.97 C 214.10 68.44 214.20 41.91 214.19 15.37 Z" />
<path fill="#feffff" d=" M 111.05 16.04 C 115.01 16.04 118.98 16.04 122.95 16.05 C 122.93 54.71 122.93 93.37 122.95 132.02 C 144.43 131.98 165.92 132.22 187.39 131.90 L 188.12 131.87 C 187.94 135.23 187.96 138.60 187.93 141.96 C 162.30 141.94 136.68 141.96 111.06 141.95 C 111.05 99.98 111.07 58.01 111.05 16.04 Z" />
<path fill="#ffffff" d=" M 562.07 30.04 C 575.73 30.09 589.39 30.00 603.06 30.09 C 609.66 30.19 616.95 31.36 621.80 36.25 C 629.85 43.64 628.28 58.41 619.20 64.31 C 615.91 66.50 612.02 67.65 608.13 68.12 C 594.42 68.25 580.71 68.14 567.00 68.10 C 565.37 68.15 563.77 68.39 562.16 68.54 C 561.92 55.71 562.09 42.88 562.07 30.04 Z" />
<path fill="#23558c" d=" M 400.48 47.56 C 413.06 42.76 428.19 44.01 439.36 51.70 C 448.66 58.41 451.26 70.65 451.14 81.48 C 450.83 103.41 451.08 125.35 451.01 147.28 C 443.98 147.24 436.95 147.09 429.93 147.41 C 429.94 125.95 429.99 104.49 429.91 83.02 C 430.00 77.84 428.77 72.65 425.74 68.39 C 431.32 70.99 431.00 77.83 431.27 83.03 C 431.31 103.87 431.28 124.72 431.27 145.57 C 437.20 145.58 443.14 145.49 449.07 145.12 C 449.71 122.77 449.21 100.39 449.28 78.03 C 449.68 70.58 446.48 63.62 442.63 57.46 C 439.51 52.43 433.53 50.65 428.42 48.37 C 423.79 46.12 418.61 47.44 413.70 47.08 C 404.42 45.92 396.04 51.38 389.11 56.91 C 388.99 56.64 388.74 56.10 388.61 55.83 C 391.46 51.81 396.08 49.51 400.48 47.56 Z" />
<path fill="#0c53a1" d=" M 689.75 59.79 C 706.35 40.31 740.29 39.46 757.54 58.51 C 764.25 65.43 767.94 74.76 769.49 84.16 C 770.68 90.57 770.32 97.12 770.40 103.61 C 746.67 103.62 722.93 103.62 699.19 103.61 C 700.05 111.08 702.21 118.86 707.78 124.24 C 715.07 131.88 727.54 133.55 736.84 128.81 C 743.43 125.35 746.76 118.27 749.18 111.59 C 756.32 112.41 763.44 113.48 770.60 114.13 C 768.26 124.87 762.67 135.22 753.52 141.62 C 742.17 149.70 727.29 150.86 713.91 148.54 C 701.88 146.40 690.89 138.99 684.70 128.41 C 679.38 119.28 677.35 108.51 677.59 98.02 C 677.31 84.48 680.54 70.13 689.75 59.79 Z" />
<path fill="#0c53a1" d=" M 819.50 53.96 C 826.78 45.48 839.00 43.71 849.52 45.26 C 861.20 46.81 871.91 54.00 877.83 64.18 C 882.85 72.87 885.49 82.95 885.64 92.97 C 883.30 103.87 883.81 115.74 877.57 125.45 C 872.64 136.26 862.62 144.46 850.99 146.93 C 845.68 147.90 840.20 148.07 834.85 147.42 C 828.63 146.85 824.21 141.69 818.15 140.55 C 819.05 152.62 817.66 164.74 818.97 176.78 C 825.96 177.39 832.98 177.25 839.99 177.20 C 860.18 177.27 880.38 177.13 900.57 177.31 C 900.78 183.75 900.87 190.19 900.78 196.64 C 610.86 196.77 320.94 196.63 31.02 196.71 C 22.83 196.68 14.63 197.08 6.45 196.58 C 6.45 190.16 6.49 183.74 6.54 177.32 C 97.70 177.06 188.86 177.30 280.03 177.21 C 436.03 177.22 592.03 177.21 748.03 177.21 C 764.95 177.01 781.88 177.70 798.78 176.76 C 799.79 160.52 799.02 144.24 799.26 127.98 C 799.31 101.49 799.14 74.99 799.33 48.50 C 804.89 48.29 810.46 48.61 816.02 48.61 C 817.42 48.68 818.66 47.96 819.90 47.38 C 819.66 49.57 819.57 51.76 819.50 53.96 Z" />
<path fill="#0c53a1" d=" M 368.63 46.94 C 375.09 46.94 381.56 46.90 388.02 46.96 C 388.03 49.64 388.05 52.31 388.21 54.98 L 388.61 55.83 C 388.74 56.10 388.99 56.64 389.11 56.91 C 396.04 51.38 404.42 45.92 413.70 47.08 C 418.61 47.44 423.79 46.12 428.42 48.37 C 433.53 50.65 439.51 52.43 442.63 57.46 C 446.48 63.62 449.68 70.58 449.28 78.03 C 449.21 100.39 449.71 122.77 449.07 145.12 C 443.14 145.49 437.20 145.58 431.27 145.57 C 431.28 124.72 431.31 103.87 431.27 83.03 C 431.00 77.83 431.32 70.99 425.74 68.39 C 416.91 60.91 402.65 62.66 395.02 71.00 C 390.69 76.29 389.96 83.43 389.63 90.01 C 389.60 109.14 389.63 128.27 389.62 147.40 C 382.62 147.35 375.62 147.40 368.62 147.39 C 368.63 113.91 368.61 80.42 368.63 46.94 Z" />
<path fill="#244f73" d=" M 482.96 46.96 C 490.32 46.93 497.69 46.92 505.06 46.95 C 505.06 80.65 505.07 114.34 505.05 148.03 C 497.69 148.05 490.33 148.06 482.97 148.04 C 482.91 114.35 482.93 80.65 482.96 46.96 Z" />
<path fill="#215285" d=" M 797.96 46.95 C 805.26 47.14 812.63 46.44 819.90 47.38 C 818.66 47.96 817.42 48.68 816.02 48.61 C 810.46 48.61 804.89 48.29 799.33 48.50 C 799.14 74.99 799.31 101.49 799.26 127.98 C 799.02 144.24 799.79 160.52 798.78 176.76 C 781.88 177.70 764.95 177.01 748.03 177.21 C 592.03 177.21 436.03 177.22 280.03 177.21 C 188.86 177.30 97.70 177.06 6.54 177.32 C 6.49 183.74 6.45 190.16 6.45 196.58 C 14.63 197.08 22.83 196.68 31.02 196.71 C 320.94 196.63 610.86 196.77 900.78 196.64 C 900.87 190.19 900.78 183.75 900.57 177.31 C 880.38 177.13 860.18 177.27 839.99 177.20 C 832.98 177.25 825.96 177.39 818.97 176.78 C 817.66 164.74 819.05 152.62 818.15 140.55 C 824.21 141.69 828.63 146.85 834.85 147.42 C 840.20 148.07 845.68 147.90 850.99 146.93 C 862.62 144.46 872.64 136.26 877.57 125.45 C 883.81 115.74 883.30 103.87 885.64 92.97 C 886.54 105.72 883.90 119.05 877.14 130.02 C 871.25 139.71 861.04 146.36 850.06 148.76 C 840.65 150.62 830.09 149.54 822.32 143.54 C 821.92 143.02 821.11 141.99 820.71 141.47 C 820.24 142.53 819.43 143.53 819.65 144.78 C 819.58 155.16 819.67 165.55 819.62 175.94 C 847.09 175.98 874.56 175.92 902.04 175.96 C 902.05 183.32 902.06 190.68 902.04 198.04 C 603.01 198.06 303.98 198.06 4.95 198.04 C 4.93 190.69 4.93 183.33 4.95 175.97 C 269.29 175.93 533.62 175.96 797.95 175.95 C 797.95 132.95 797.94 89.95 797.96 46.95 Z" />
<path fill="#0c54a1" d=" M 484.48 48.40 C 490.81 48.34 497.15 48.31 503.49 48.48 C 503.67 81.19 503.76 113.91 503.44 146.62 C 497.17 147.88 490.69 147.64 484.40 146.71 C 484.48 113.94 484.34 81.17 484.48 48.40 Z" />
<path fill="#1e4f8c" d=" M 833.43 62.73 C 838.21 60.18 843.95 60.50 849.03 61.91 C 855.24 63.78 859.03 69.57 862.08 74.91 C 864.92 79.72 864.82 85.45 866.29 90.69 C 868.49 96.78 865.31 102.90 864.91 109.02 C 864.09 117.52 859.04 125.23 852.10 130.04 C 845.35 133.70 836.58 134.28 829.92 130.10 C 828.51 129.48 828.17 127.90 827.52 126.69 C 831.36 129.62 836.04 131.67 840.96 131.41 C 851.02 131.50 859.41 123.23 862.13 114.00 C 865.02 104.14 865.10 93.55 863.25 83.48 C 861.70 75.33 856.79 67.44 849.06 63.93 C 845.08 62.03 840.56 62.21 836.31 62.83 C 835.59 62.80 834.15 62.75 833.43 62.73 Z" />
<path fill="#fefffe" d=" M 708.81 68.73 C 717.70 60.80 733.00 60.94 741.33 69.69 C 745.63 73.84 747.52 79.80 748.23 85.60 C 732.18 85.62 716.12 85.64 700.07 85.60 C 701.17 79.26 703.75 72.94 708.81 68.73 Z" />
<path fill="#ffffff" d=" M 836.31 62.83 C 840.56 62.21 845.08 62.03 849.06 63.93 C 856.79 67.44 861.70 75.33 863.25 83.48 C 865.10 93.55 865.02 104.14 862.13 114.00 C 859.41 123.23 851.02 131.50 840.96 131.41 C 836.04 131.67 831.36 129.62 827.52 126.69 C 819.23 119.69 817.60 108.20 817.39 97.98 C 817.59 89.99 818.51 81.67 822.54 74.60 C 825.71 69.35 830.52 65.00 836.31 62.83 Z" />
<path fill="#bcddf9" d=" M 562.16 68.54 C 563.77 68.39 565.37 68.15 567.00 68.10 C 580.71 68.14 594.42 68.25 608.13 68.12 C 599.82 69.64 591.34 68.78 582.95 69.00 C 575.72 68.80 568.45 69.45 561.25 68.61 L 562.16 68.54 Z" />
<path fill="#bbdcf7" d=" M 451.14 81.48 C 451.69 83.94 451.96 86.45 451.90 88.96 C 451.66 108.54 452.08 128.12 451.69 147.69 C 444.44 147.93 437.14 148.39 429.93 147.41 C 436.95 147.09 443.98 147.24 451.01 147.28 C 451.08 125.35 450.83 103.41 451.14 81.48 Z" />
<path fill="#145297" d=" M 58.51 216.80 C 71.43 213.80 85.13 213.67 98.01 216.94 C 106.66 219.20 114.95 223.34 121.39 229.60 C 128.94 237.26 132.84 247.60 135.44 257.84 C 128.63 259.70 121.82 261.55 115.01 263.42 C 112.64 255.11 109.49 246.11 102.00 241.04 C 90.99 233.52 76.59 232.94 63.98 236.06 C 53.76 238.54 44.76 245.39 39.78 254.67 C 33.38 266.65 31.69 280.76 33.24 294.13 C 34.28 304.53 37.86 315.15 45.39 322.67 C 53.60 331.02 65.51 334.69 76.97 335.32 C 90.51 335.68 103.90 330.88 114.81 323.00 C 114.81 316.02 114.79 309.04 114.83 302.06 C 101.87 302.04 88.91 302.07 75.95 302.04 C 75.95 295.23 75.95 288.42 75.96 281.61 C 95.76 281.62 115.57 281.62 135.37 281.61 C 136.56 298.92 135.15 316.30 136.11 333.61 L 136.19 334.68 C 118.97 348.42 97.12 357.43 74.82 355.74 C 57.62 354.87 40.19 348.50 28.02 336.01 C 16.07 323.43 10.52 305.97 9.84 288.88 C 9.42 272.33 13.33 255.43 22.32 241.41 C 30.33 228.62 43.98 220.18 58.51 216.80 Z" />
<path fill="#155296" d=" M 352.22 223.19 C 365.01 214.91 381.01 213.46 395.83 215.20 C 408.26 216.88 421.10 221.90 428.77 232.29 C 434.52 239.77 436.84 249.26 437.25 258.55 C 430.11 259.29 422.94 259.59 415.79 260.28 C 415.00 253.84 413.66 246.89 408.76 242.22 C 402.71 235.80 393.29 234.88 384.97 234.70 C 377.16 235.10 368.35 235.66 362.46 241.50 C 357.63 245.86 356.09 253.71 359.73 259.27 C 362.35 263.70 367.60 265.19 372.14 266.83 C 384.56 270.89 397.58 272.70 409.98 276.84 C 419.29 279.76 428.34 284.75 434.29 292.67 C 440.25 300.84 442.32 311.65 440.18 321.49 C 438.03 332.28 431.08 341.94 421.66 347.60 C 409.29 355.16 394.18 357.01 379.98 355.43 C 364.92 354.44 349.18 348.55 340.08 335.95 C 333.74 327.60 330.98 317.07 330.84 306.69 C 337.87 305.87 344.95 305.45 352.00 304.73 C 352.80 312.96 355.11 321.89 362.00 327.16 C 372.13 334.89 385.76 336.65 398.08 334.62 C 404.18 333.52 410.46 331.34 414.79 326.70 C 419.48 321.72 420.87 313.61 417.25 307.65 C 414.40 302.80 409.03 300.32 403.94 298.51 C 389.24 293.60 373.64 291.67 359.28 285.70 C 349.05 281.47 339.81 273.13 337.16 262.05 C 333.21 247.62 339.75 231.31 352.22 223.19 Z" />
<path fill="#155196" d=" M 477.67 222.70 C 490.38 214.87 506.01 213.47 520.56 215.22 C 533.02 216.89 545.89 221.97 553.52 232.43 C 559.17 239.88 561.72 249.31 561.72 258.58 C 554.66 259.33 547.55 259.52 540.49 260.33 C 539.64 253.95 538.39 247.09 533.63 242.36 C 527.66 235.91 518.31 234.95 510.03 234.68 C 502.19 235.08 493.31 235.48 487.38 241.33 C 483.30 244.92 481.26 250.81 482.92 256.08 C 484.11 260.42 487.86 263.55 491.99 265.03 C 508.70 271.69 527.21 272.69 543.58 280.38 C 551.54 284.30 558.82 290.37 562.45 298.65 C 568.03 311.00 566.06 326.20 557.93 336.98 C 550.81 346.80 539.22 352.47 527.53 354.70 C 515.14 356.95 502.26 356.06 490.12 352.87 C 477.59 349.56 466.42 341.01 460.67 329.32 C 457.11 322.34 455.62 314.47 455.58 306.67 C 462.58 305.81 469.62 305.51 476.63 304.68 C 477.50 312.50 479.44 320.94 485.63 326.35 C 494.49 333.78 506.64 336.05 517.91 335.23 C 525.72 334.59 534.04 332.43 539.58 326.56 C 545.20 320.67 545.53 310.26 539.52 304.54 C 534.88 300.37 528.82 298.33 522.89 296.76 C 509.75 292.98 496.09 290.85 483.43 285.51 C 473.92 281.39 465.35 273.87 462.27 263.70 C 457.43 248.63 464.11 230.85 477.67 222.70 Z" />
<path fill="#224f7d" d=" M 161.96 215.97 C 169.66 215.93 177.36 215.96 185.06 215.97 C 185.04 261.99 185.08 308.02 185.04 354.04 C 177.35 354.05 169.66 354.06 161.97 354.04 C 161.93 308.01 161.95 261.99 161.96 215.97 Z" />
<path fill="#205080" d=" M 211.95 215.94 C 245.65 215.97 279.35 215.93 313.06 215.97 C 313.05 223.32 313.07 230.67 313.06 238.03 C 287.05 238.07 261.05 238.03 235.04 238.05 C 235.09 249.35 235.07 260.65 235.05 271.94 C 259.38 271.97 283.71 271.94 308.04 271.96 C 308.06 279.32 308.03 286.68 308.06 294.04 C 283.72 294.07 259.39 294.05 235.05 294.05 C 234.97 306.96 235.28 319.88 234.89 332.78 C 233.08 329.12 233.43 324.95 233.49 321.00 C 233.77 311.87 233.40 302.74 233.60 293.62 C 236.39 293.25 239.19 292.91 242.01 292.83 C 263.63 292.79 285.26 292.99 306.88 292.76 C 307.08 286.25 306.92 279.73 306.77 273.21 C 282.52 272.75 258.25 273.71 234.02 272.82 C 233.10 264.59 233.79 256.32 233.54 248.07 C 233.51 244.69 233.39 241.29 233.98 237.95 C 236.84 236.87 239.96 236.93 242.97 236.86 C 259.98 236.91 276.99 236.89 293.99 236.89 C 299.83 237.00 305.68 237.16 311.52 236.77 C 311.56 230.26 311.62 223.76 311.58 217.25 C 278.79 217.04 245.98 217.11 213.18 217.25 C 212.69 238.51 213.34 259.77 212.93 281.03 C 212.94 304.94 213.10 328.85 213.06 352.76 C 232.71 353.14 252.36 352.77 272.01 352.88 C 286.25 352.82 300.50 353.05 314.74 352.81 C 315.15 346.69 315.02 340.55 314.59 334.44 C 292.71 334.41 270.84 334.39 248.97 334.45 C 244.36 334.37 239.47 335.21 235.16 333.11 C 262.11 332.71 289.08 333.05 316.03 332.94 C 316.06 339.97 316.05 347.01 316.05 354.05 C 281.35 354.04 246.65 354.03 211.95 354.06 C 211.95 308.02 211.96 261.98 211.95 215.94 Z" />
<path fill="#21507f" d=" M 585.96 215.96 C 619.66 215.96 653.36 215.93 687.06 215.97 C 687.06 223.32 687.07 230.68 687.06 238.04 C 661.19 238.02 635.31 238.13 609.44 237.98 C 615.79 236.01 622.50 237.12 629.03 236.92 C 647.82 236.74 666.63 237.17 685.42 236.64 C 685.37 230.19 685.84 223.73 685.07 217.31 C 652.41 216.89 619.73 217.34 587.07 217.08 C 587.39 262.36 586.98 307.64 587.29 352.93 C 593.86 353.26 600.44 353.08 607.02 352.92 C 634.31 352.71 661.60 353.04 688.89 352.85 C 689.16 346.70 689.07 340.55 688.74 334.42 C 669.82 334.40 650.90 334.43 631.97 334.42 C 623.97 334.34 615.95 334.79 607.97 334.05 C 607.16 320.61 607.62 307.13 607.69 293.67 C 615.75 292.29 623.93 292.91 632.07 292.84 C 640.71 292.83 649.35 292.89 658.00 292.81 C 665.65 292.68 673.30 293.43 680.94 292.75 C 681.15 286.24 681.14 279.73 680.85 273.23 C 656.56 272.71 632.22 273.82 607.94 272.68 C 607.28 261.48 607.49 250.24 607.68 239.02 C 608.02 238.81 608.70 238.39 609.04 238.18 C 609.09 249.43 609.05 260.69 609.05 271.95 C 633.38 271.97 657.71 271.94 682.04 271.97 C 682.06 279.32 682.05 286.68 682.03 294.03 C 657.70 294.07 633.38 294.04 609.05 294.05 C 609.07 307.01 609.07 319.98 609.05 332.94 C 636.05 332.94 663.04 332.94 690.04 332.94 C 690.06 339.98 690.04 347.01 690.05 354.05 C 655.35 354.03 620.66 354.07 585.96 354.03 C 585.94 308.00 585.94 261.98 585.96 215.96 Z" />
<path fill="#c7e3fe" d=" M 710.42 216.40 C 718.05 216.07 725.76 215.40 733.35 216.60 L 732.32 216.70 C 725.20 217.33 718.05 216.87 710.92 216.94 C 711.09 246.96 710.95 276.98 710.99 307.00 C 710.88 322.53 711.25 338.06 710.79 353.58 C 710.78 353.75 710.76 354.09 710.75 354.27 C 709.16 347.95 710.07 341.44 710.06 335.02 C 709.72 312.03 710.19 289.04 710.02 266.05 C 710.20 249.50 709.62 232.94 710.42 216.40 Z" />
<path fill="#10529c" d=" M 162.98 217.06 C 169.82 216.62 176.67 217.08 183.51 217.25 C 183.79 260.49 183.53 303.74 183.67 346.99 C 183.55 349.11 183.82 352.58 181.02 353.05 C 175.07 353.33 169.09 353.18 163.13 353.08 C 163.00 351.06 162.86 349.04 162.81 347.02 C 162.81 305.02 162.93 263.02 162.74 221.02 C 162.80 219.70 162.88 218.38 162.98 217.06 Z" />
<path fill="#0f549e" d=" M 213.18 217.25 C 245.98 217.11 278.79 217.04 311.58 217.25 C 311.62 223.76 311.56 230.26 311.52 236.77 C 305.68 237.16 299.83 237.00 293.99 236.89 C 276.99 236.89 259.98 236.91 242.97 236.86 C 239.96 236.93 236.84 236.87 233.98 237.95 C 233.39 241.29 233.51 244.69 233.54 248.07 C 233.79 256.32 233.10 264.59 234.02 272.82 C 258.25 273.71 282.52 272.75 306.77 273.21 C 306.92 279.73 307.08 286.25 306.88 292.76 C 285.26 292.99 263.63 292.79 242.01 292.83 C 239.19 292.91 236.39 293.25 233.60 293.62 C 233.40 302.74 233.77 311.87 233.49 321.00 C 233.43 324.95 233.08 329.12 234.89 332.78 C 234.96 332.86 235.09 333.03 235.16 333.11 C 239.47 335.21 244.36 334.37 248.97 334.45 C 270.84 334.39 292.71 334.41 314.59 334.44 C 315.02 340.55 315.15 346.69 314.74 352.81 C 300.50 353.05 286.25 352.82 272.01 352.88 C 252.36 352.77 232.71 353.14 213.06 352.76 C 213.10 328.85 212.94 304.94 212.93 281.03 C 213.34 259.77 212.69 238.51 213.18 217.25 Z" />
<path fill="#0f539f" d=" M 587.07 217.08 C 619.73 217.34 652.41 216.89 685.07 217.31 C 685.84 223.73 685.37 230.19 685.42 236.64 C 666.63 237.17 647.82 236.74 629.03 236.92 C 622.50 237.12 615.79 236.01 609.44 237.98 L 609.04 238.18 C 608.70 238.39 608.02 238.81 607.68 239.02 C 607.49 250.24 607.28 261.48 607.94 272.68 C 632.22 273.82 656.56 272.71 680.85 273.23 C 681.14 279.73 681.15 286.24 680.94 292.75 C 673.30 293.43 665.65 292.68 658.00 292.81 C 649.35 292.89 640.71 292.83 632.07 292.84 C 623.93 292.91 615.75 292.29 607.69 293.67 C 607.62 307.13 607.16 320.61 607.97 334.05 C 615.95 334.79 623.97 334.34 631.97 334.42 C 650.90 334.43 669.82 334.40 688.74 334.42 C 689.07 340.55 689.16 346.70 688.89 352.85 C 661.60 353.04 634.31 352.71 607.02 352.92 C 600.44 353.08 593.86 353.26 587.29 352.93 C 586.98 307.64 587.39 262.36 587.07 217.08 Z" />
<path fill="#155195" d=" M 710.92 216.94 C 718.05 216.87 725.20 217.33 732.32 216.70 C 754.28 249.32 776.11 282.03 797.92 314.75 C 797.99 282.10 797.92 249.46 797.96 216.81 C 805.17 216.81 812.38 216.82 819.60 216.80 C 819.68 262.42 819.59 308.03 819.64 353.64 C 812.39 353.57 805.14 353.67 797.89 353.59 C 776.13 320.92 754.34 288.28 732.42 255.72 C 732.35 288.36 732.39 321.00 732.39 353.64 C 725.19 353.58 717.99 353.67 710.79 353.58 C 711.25 338.06 710.88 322.53 710.99 307.00 C 710.95 276.98 711.09 246.96 710.92 216.94 Z" />
<path fill="#254f73" d=" M 841.84 216.96 C 861.68 216.93 881.52 216.92 901.35 216.96 C 901.37 217.55 901.40 218.73 901.41 219.32 C 894.74 217.42 887.78 218.28 880.95 218.17 C 870.64 218.10 860.32 218.26 850.01 218.06 C 847.20 217.98 844.45 218.58 841.78 219.36 C 841.79 218.76 841.83 217.56 841.84 216.96 Z" />
<path fill="#175191" d=" M 841.78 219.36 C 844.45 218.58 847.20 217.98 850.01 218.06 C 860.32 218.26 870.64 218.10 880.95 218.17 C 887.78 218.28 894.74 217.42 901.41 219.32 C 901.13 228.92 902.16 238.67 899.98 248.13 C 896.99 263.31 887.86 277.45 874.44 285.40 C 873.14 286.05 871.61 287.29 870.21 286.12 C 856.77 278.62 847.21 264.96 843.85 250.03 C 841.35 239.99 841.87 229.60 841.78 219.36 Z" />
<path fill="#fdffff" d=" M 28.74 240.77 C 38.23 228.18 53.71 221.44 69.10 219.87 C 84.12 218.21 100.30 220.29 113.01 229.00 C 121.66 234.87 126.66 244.63 129.46 254.44 C 125.75 255.44 122.05 256.44 118.35 257.49 C 115.98 250.62 112.88 243.60 107.17 238.84 C 98.79 231.96 87.65 229.13 76.95 229.59 C 63.54 229.44 49.48 234.31 40.71 244.79 C 31.53 255.61 28.21 270.15 27.81 284.03 C 27.83 297.65 30.35 312.09 39.09 322.99 C 47.89 334.13 62.29 339.28 76.10 340.14 C 90.97 340.70 105.88 335.58 117.81 326.80 C 120.86 324.96 119.22 320.91 119.63 318.00 C 119.22 311.08 120.32 303.98 119.24 297.18 L 119.16 296.67 C 106.47 297.29 93.76 296.77 81.06 296.95 C 81.08 293.48 81.24 290.00 80.70 286.57 C 97.78 286.23 114.87 286.40 131.96 286.17 C 131.92 301.36 131.99 316.54 131.93 331.73 C 119.37 341.58 104.42 348.67 88.48 350.63 C 84.36 350.99 80.21 350.94 76.07 350.94 C 59.30 350.31 42.06 344.09 30.55 331.50 C 20.17 319.96 15.35 304.31 14.74 289.00 C 14.19 272.04 18.56 254.53 28.74 240.77 Z" />
<path fill="#fcffff" d=" M 362.32 223.43 C 374.92 218.53 389.03 218.24 402.10 221.33 C 411.57 223.61 420.76 228.72 426.15 237.05 C 429.52 242.17 431.43 248.14 432.04 254.22 C 428.04 254.54 424.03 254.78 420.02 254.94 C 418.66 247.85 415.57 240.72 409.59 236.34 C 401.43 230.35 390.76 229.50 380.97 230.03 C 372.51 230.60 363.26 232.65 357.61 239.51 C 352.00 245.81 351.15 255.92 356.20 262.81 C 359.85 268.01 366.25 269.97 371.99 271.90 C 385.58 276.07 399.81 278.01 413.12 283.11 C 421.02 286.38 428.71 291.53 432.67 299.35 C 438.26 310.10 436.80 323.93 429.66 333.63 C 422.17 344.31 409.05 349.43 396.48 350.80 C 392.68 350.99 388.88 350.92 385.09 350.93 C 371.93 350.49 357.87 347.29 348.22 337.74 C 340.90 330.86 336.76 321.07 335.92 311.14 C 339.84 310.59 343.77 310.24 347.72 310.04 C 349.17 317.25 351.73 324.66 357.41 329.65 C 366.74 337.94 379.79 340.73 391.99 340.17 C 400.54 339.75 409.38 337.62 416.17 332.15 C 423.46 326.21 426.42 315.23 422.24 306.65 C 418.88 299.29 411.02 295.60 403.72 293.30 C 389.56 288.89 374.70 286.82 360.94 281.13 C 352.22 277.43 344.32 270.44 341.88 261.00 C 340.01 253.08 340.99 244.37 345.33 237.40 C 349.05 230.85 355.36 226.09 362.32 223.43 Z" />
<path fill="#fcffff" d=" M 481.31 226.19 C 493.58 219.29 508.38 218.10 522.08 220.37 C 531.84 222.03 541.75 225.95 548.27 233.68 C 553.16 239.45 555.93 246.76 556.79 254.23 C 552.73 254.51 548.67 254.78 544.62 254.97 C 543.26 246.01 538.09 237.25 529.56 233.49 C 519.95 229.38 509.05 229.17 498.86 230.84 C 491.98 231.97 485.15 235.18 481.10 241.04 C 475.75 248.30 476.45 259.60 483.40 265.60 C 487.70 269.15 493.15 270.83 498.39 272.42 C 511.75 276.33 525.68 278.29 538.65 283.48 C 546.79 286.92 554.50 292.67 558.14 300.95 C 562.79 311.23 561.20 323.73 554.82 332.92 C 547.47 343.91 534.25 349.28 521.53 350.77 C 515.83 351.06 510.11 351.00 504.42 350.69 C 493.50 349.47 482.29 346.37 473.94 338.88 C 466.06 331.81 461.56 321.60 460.51 311.17 C 464.47 310.54 468.47 310.26 472.47 310.05 C 473.81 317.55 476.63 325.25 482.68 330.23 C 492.37 338.36 505.61 340.86 517.96 340.11 C 526.79 339.40 536.13 337.01 542.53 330.50 C 549.89 323.42 550.95 310.55 544.34 302.64 C 540.85 298.44 535.81 295.92 530.76 294.13 C 517.02 289.44 502.52 287.42 488.88 282.45 C 479.79 279.19 470.98 273.07 467.46 263.73 C 462.05 250.04 468.57 233.27 481.31 226.19 Z" />
<path fill="#1f5082" d=" M 217.30 221.22 C 219.53 221.08 221.78 220.94 224.02 220.89 C 250.36 220.80 276.69 220.98 303.02 220.82 C 304.77 220.76 306.46 221.24 308.09 221.84 C 278.09 222.31 248.06 221.93 218.05 222.04 C 217.91 264.08 218.30 306.14 217.85 348.18 C 216.90 345.90 216.70 343.42 216.76 340.98 C 216.82 305.66 216.73 270.33 216.82 235.01 C 216.73 230.41 216.83 225.80 217.30 221.22 Z" />
<path fill="#1f5083" d=" M 591.25 221.21 C 619.48 220.38 647.76 221.06 676.00 220.85 C 678.09 220.83 680.28 220.76 682.16 221.84 C 652.13 222.32 622.07 221.92 592.03 222.04 C 592.06 264.01 592.04 305.98 592.04 347.95 C 623.01 347.97 653.97 347.94 684.93 347.96 C 684.91 344.90 684.93 341.84 685.10 338.79 C 687.61 341.57 686.22 345.47 686.00 348.78 C 659.37 349.67 632.70 348.88 606.05 349.24 C 601.13 349.34 596.22 349.10 591.32 348.70 C 590.51 341.13 590.92 333.52 590.87 325.93 C 590.82 299.63 590.86 273.32 590.85 247.02 C 590.94 238.41 590.43 229.79 591.25 221.21 Z" />
<path fill="#fcfffe" d=" M 846.06 221.36 C 863.16 221.41 880.26 221.32 897.37 221.39 C 897.28 231.94 898.18 242.78 894.89 252.98 C 891.36 265.10 882.98 275.86 871.68 281.66 C 859.75 275.58 851.20 263.91 847.96 251.02 C 845.30 241.36 846.20 231.25 846.06 221.36 Z" />
<path fill="#feffff" d=" M 168.04 222.05 C 171.74 222.07 175.44 222.11 179.14 221.92 C 178.67 249.27 179.07 276.64 178.94 304.00 C 179.06 318.69 178.68 333.40 179.14 348.09 C 175.44 347.89 171.74 347.93 168.04 347.95 C 168.05 305.98 168.06 264.01 168.04 222.05 Z" />
<path fill="#254d74" d=" M 179.14 221.92 C 181.00 225.32 180.26 229.30 180.36 233.00 C 180.31 270.01 180.39 307.03 180.31 344.03 C 180.34 345.48 179.74 346.81 179.14 348.09 C 178.68 333.40 179.06 318.69 178.94 304.00 C 179.07 276.64 178.67 249.27 179.14 221.92 Z" />
<path fill="#feffff" d=" M 218.05 222.04 C 248.06 221.93 278.09 222.31 308.09 221.84 C 307.90 225.27 307.90 228.71 308.01 232.14 C 282.00 231.71 255.97 232.07 229.96 231.96 C 229.95 247.32 229.93 262.68 229.97 278.03 C 254.29 278.07 278.62 278.03 302.95 278.05 C 302.93 281.36 302.93 284.66 302.94 287.96 C 278.61 287.95 254.29 287.95 229.96 287.96 C 229.94 304.99 229.95 322.02 229.96 339.05 C 256.95 339.08 283.93 339.05 310.92 339.06 C 310.92 342.02 310.93 344.99 310.95 347.96 C 280.17 348.08 249.37 347.71 218.59 348.14 L 217.85 348.18 C 218.30 306.14 217.91 264.08 218.05 222.04 Z" />
<path fill="#feffff" d=" M 592.03 222.04 C 622.07 221.92 652.13 222.32 682.16 221.84 C 681.89 225.27 681.88 228.71 682.06 232.15 C 656.03 231.70 629.99 232.07 603.95 231.97 C 603.95 247.33 603.95 262.69 603.95 278.05 C 628.29 278.05 652.62 278.04 676.95 278.06 C 676.94 281.35 676.94 284.65 676.95 287.96 C 652.62 287.96 628.29 287.94 603.96 287.97 C 603.95 305.00 603.93 322.03 603.97 339.05 C 630.86 338.91 657.76 339.37 684.64 338.83 L 685.10 338.79 C 684.93 341.84 684.91 344.90 684.93 347.96 C 653.97 347.94 623.01 347.97 592.04 347.95 C 592.04 305.98 592.06 264.01 592.03 222.04 Z" />
<path fill="#feffff" d=" M 715.64 221.63 C 720.35 221.63 725.07 221.59 729.79 221.66 C 754.24 258.07 778.54 294.57 803.00 330.97 C 803.16 294.52 803.01 258.07 803.07 221.62 C 806.97 221.63 810.88 221.62 814.79 221.62 C 814.83 264.02 814.81 306.41 814.80 348.81 C 810.04 348.78 805.28 348.83 800.52 348.78 C 776.34 312.28 751.87 275.98 727.60 239.54 C 727.64 275.96 727.62 312.39 727.62 348.81 C 723.61 348.80 719.61 348.83 715.62 348.78 C 715.65 306.39 715.60 264.01 715.64 221.63 Z" />
<path fill="#125299" d=" M 852.97 227.83 C 865.27 230.16 877.97 230.14 890.28 227.86 C 890.16 230.80 890.23 233.74 890.41 236.68 C 885.41 236.05 880.39 235.46 875.35 235.58 C 874.78 245.74 875.04 256.01 877.13 266.01 C 873.54 265.52 869.90 265.50 866.32 266.01 C 868.24 256.00 868.68 245.75 868.27 235.57 C 863.13 235.49 858.01 235.98 852.96 236.80 C 852.93 233.81 852.94 230.81 852.97 227.83 Z" />
<path fill="#205080" d=" M 229.96 231.96 C 255.97 232.07 282.00 231.71 308.01 232.14 C 303.49 233.76 298.65 233.08 293.96 233.15 C 273.10 233.14 252.23 233.16 231.37 233.14 C 230.90 241.09 231.27 249.05 231.14 257.00 C 231.24 263.56 230.67 270.13 231.18 276.68 C 247.44 277.03 263.70 276.73 279.97 276.83 C 287.96 276.91 295.98 276.49 303.95 277.35 C 304.60 281.14 304.57 284.99 303.94 288.78 C 279.72 289.75 255.46 288.71 231.23 289.29 C 231.05 292.85 230.99 296.41 231.09 299.98 C 231.38 312.52 230.82 325.07 231.31 337.61 C 254.86 337.48 278.41 337.65 301.96 337.52 C 305.22 337.52 308.55 337.35 311.72 338.25 C 313.12 341.59 312.34 345.26 311.97 348.73 C 287.67 349.62 263.34 348.89 239.03 349.12 C 232.23 348.68 225.29 349.67 218.59 348.14 C 249.37 347.71 280.17 348.08 310.95 347.96 C 310.93 344.99 310.92 342.02 310.92 339.06 C 283.93 339.05 256.95 339.08 229.96 339.05 C 229.95 322.02 229.94 304.99 229.96 287.96 C 254.29 287.95 278.61 287.95 302.94 287.96 C 302.93 284.66 302.93 281.36 302.95 278.05 C 278.62 278.03 254.29 278.07 229.97 278.03 C 229.93 262.68 229.95 247.32 229.96 231.96 Z" />
<path fill="#20507e" d=" M 603.95 231.97 C 629.99 232.07 656.03 231.70 682.06 232.15 C 680.41 232.71 678.72 233.25 676.96 233.21 C 653.63 233.10 630.28 233.23 606.95 233.06 C 604.09 232.56 605.30 236.28 604.95 237.98 C 605.56 250.90 604.89 263.84 605.12 276.76 C 620.06 276.97 635.01 276.77 649.96 276.83 C 658.33 276.91 666.74 276.39 675.09 277.20 C 676.18 277.44 677.82 277.22 678.24 278.60 C 679.16 281.96 678.24 285.47 677.87 288.85 C 653.67 289.70 629.44 288.70 605.24 289.23 C 605.19 305.34 605.08 321.46 605.27 337.57 C 627.51 337.58 649.75 337.56 671.98 337.56 C 676.20 337.68 680.71 336.80 684.64 338.83 C 657.76 339.37 630.86 338.91 603.97 339.05 C 603.93 322.03 603.95 305.00 603.96 287.97 C 628.29 287.94 652.62 287.96 676.95 287.96 C 676.94 284.65 676.94 281.35 676.95 278.06 C 652.62 278.04 628.29 278.05 603.95 278.05 C 603.95 262.69 603.95 247.33 603.95 231.97 Z" />
<path fill="#254f74" d=" M 135.37 281.61 C 135.79 281.62 136.63 281.63 137.05 281.63 C 136.91 299.40 137.39 317.18 136.81 334.92 L 136.11 333.61 C 135.15 316.30 136.56 298.92 135.37 281.61 Z" />
<path fill="#264f77" d=" M 80.55 285.52 L 80.70 286.57 C 81.24 290.00 81.08 293.48 81.06 296.95 C 93.76 296.77 106.47 297.29 119.16 296.67 L 119.24 297.18 C 119.23 297.78 119.21 298.99 119.20 299.59 C 115.47 297.43 111.06 298.34 106.97 298.21 C 98.08 298.09 89.16 298.66 80.29 297.70 C 79.86 293.66 79.44 289.50 80.55 285.52 Z" />
<path fill="#234f79" d=" M 69.74 351.60 C 71.84 351.30 73.95 351.00 76.07 350.94 C 80.21 350.94 84.36 350.99 88.48 350.63 C 82.75 353.65 75.90 352.18 69.74 351.60 Z" />
<path fill="#254e79" d=" M 379.70 351.71 C 381.48 351.38 383.26 351.04 385.09 350.93 C 388.88 350.92 392.68 350.99 396.48 350.80 C 391.26 353.34 385.24 352.19 379.70 351.71 Z" />
<path fill="#234f78" d=" M 504.42 350.69 C 510.11 351.00 515.83 351.06 521.53 350.77 C 519.04 352.54 515.93 352.31 513.04 352.33 C 510.10 352.26 506.92 352.52 504.42 350.69 Z" />
</svg>
